HIERARCHY
ROOT Hips
{
	OFFSET	0.000000	0.000000	0.000000
	CHANNELS 6 Xposition Yposition Zposition Zrotation Xrotation Yrotation
	JOINT LeftHip
	{
		OFFSET	4.740440	-3.195970	-0.322709
		CHANNELS 3 Zrotation Xrotation Yrotation
		JOINT LeftKnee
		{
			OFFSET	-1.605680	-15.592300	1.005510
			CHANNELS 3 Zrotation Xrotation Yrotation
			JOINT LeftAnkle
			{
				OFFSET	-0.632401	-16.421000	-1.413730
				CHANNELS 3 Zrotation Xrotation Yrotation
				End Site
				{
					OFFSET	0.008423	-2.933000	-1.684880
				}
			}
		}
	}
	JOINT RightHip
	{
		OFFSET	-4.740440	-3.195970	-0.322709
		CHANNELS 3 Zrotation Xrotation Yrotation
		JOINT RightKnee
		{
			OFFSET	1.605680	-15.592300	1.005510
			CHANNELS 3 Zrotation Xrotation Yrotation
			JOINT RightAnkle
			{
				OFFSET	0.632401	-16.421000	-1.413730
				CHANNELS 3 Zrotation Xrotation Yrotation
				End Site
				{
					OFFSET	-0.008423	-2.933000	-1.684880
				}
			}
		}
	}
	JOINT Chest
	{
		OFFSET	0.000000	3.468200	0.078401
		CHANNELS 3 Zrotation Xrotation Yrotation
		JOINT LeftCollar
		{
			OFFSET	3.857650	15.070700	-0.011583
			CHANNELS 3 Zrotation Xrotation Yrotation
			JOINT LeftShoulder
			{
				OFFSET	3.979720	-1.940530	-0.165223
				CHANNELS 3 Zrotation Xrotation Yrotation
				JOINT LeftElbow
				{
					OFFSET	0.615844	-10.986600	-0.673886
					CHANNELS 3 Zrotation Xrotation Yrotation
					JOINT LeftWrist
					{
						OFFSET	0.826843	-10.854500	1.034220
						CHANNELS 3 Zrotation Xrotation Yrotation
						End Site
						{
							OFFSET	-1.679080	-8.456540	0.936217
						}
					}
				}
			}
		}
		JOINT RightCollar
		{
			OFFSET	-3.857650	15.070700	-0.011583
			CHANNELS 3 Zrotation Xrotation Yrotation
			JOINT RightShoulder
			{
				OFFSET	-3.979720	-1.940530	-0.165223
				CHANNELS 3 Zrotation Xrotation Yrotation
				JOINT RightElbow
				{
					OFFSET	-0.615845	-10.986600	-0.673886
					CHANNELS 3 Zrotation Xrotation Yrotation
					JOINT RightWrist
					{
						OFFSET	-0.826843	-10.854500	1.034220
						CHANNELS 3 Zrotation Xrotation Yrotation
						End Site
						{
							OFFSET	1.679080	-8.456540	0.936217
						}
					}
				}
			}
		}
		JOINT Neck
		{
			OFFSET	0.000000	15.101400	0.055730
			CHANNELS 3 Zrotation Xrotation Yrotation
			JOINT Head
			{
				OFFSET	0.000000	4.185120	1.488260
				CHANNELS 3 Zrotation Xrotation Yrotation
				End Site
				{
					OFFSET	0.000000	7.773420	-0.106016
				}
			}
		}
	}
}
MOTION
Frames:     16
Frame Time: 0.016667
-1.265362	37.754158	-3.391381	2.040858	-13.425763	-19.490284	-1.502903	6.281332	2.303741	-3.485939	7.116396	2.699221	0.247800	-1.498804	5.336136	-19.794483	0.243993	3.722741	5.278445	19.746563	3.628640	10.166423	-7.339082	3.775343	-8.451385	9.461710	4.572609	-2.853024	0.998939	-1.596331	2.518656	-6.797730	4.005965	-3.124844	-7.495689	-0.583551	14.901864	5.534827	-25.990433	0.320366	-1.505648	1.639834	-3.436169	-0.475506	0.344675	2.264129	-7.341255	16.999681	-20.091957	0.599162	13.611947	-0.572531	7.728865	-1.955746	-0.892199	8.441830	1.854818	
-1.266518	37.755096	-3.389323	2.047817	-13.419780	-19.484776	-1.501734	6.285462	2.330187	-3.487525	7.106599	2.667195	0.247800	-1.498804	5.336136	-19.798439	0.246340	3.718265	5.277882	19.738007	3.627492	10.166423	-7.339082	3.775343	-8.447824	9.460917	4.567641	-2.873559	1.015693	-1.603241	2.560651	-6.785279	4.009614	-3.235119	-7.491265	-0.813463	14.941206	5.579697	-25.995201	0.320875	-1.502010	1.648556	-3.440043	-0.471662	0.335892	2.258762	-7.349497	16.998547	-20.086720	0.596050	13.608801	-0.584710	7.724533	-1.967713	-0.848827	8.376782	1.770872	
-1.269933	37.757973	-3.383671	2.071174	-13.402540	-19.463409	-1.497995	6.302816	2.421285	-3.492758	7.073359	2.554407	0.247800	-1.498804	5.336136	-19.812834	0.254211	3.700605	5.276215	19.712864	3.624176	10.166423	-7.339082	3.775343	-8.440047	9.456795	4.560210	-2.905122	1.052427	-1.649619	2.699250	-6.778420	4.039581	-3.382089	-7.526897	-1.100478	14.902472	5.674944	-26.039328	0.315982	-1.480578	1.658121	-3.453427	-0.464325	0.309727	2.251622	-7.375558	16.999205	-20.071756	0.583578	13.598356	-0.620351	7.714432	-2.019522	-0.653923	8.192161	1.455148	
-1.270838	37.758652	-3.381753	2.076121	-13.394459	-19.454018	-1.492682	6.308592	2.449934	-3.494768	7.061189	2.515432	0.247800	-1.498804	5.336136	-19.814219	0.256859	3.691590	5.275642	19.704239	3.623024	10.166423	-7.339082	3.775343	-8.436146	9.451828	4.558729	-2.909550	1.075270	-1.659598	2.744208	-6.793717	4.041837	-3.479557	-7.503888	-1.438913	14.868101	5.738721	-26.090582	0.318773	-1.474551	1.658387	-3.467135	-0.456613	0.300517	2.256826	-7.385796	16.999401	-20.071777	0.578593	13.596332	-0.636624	7.712546	-2.036172	-0.565501	8.160641	1.427020	
-1.273337	37.760548	-3.376189	2.089508	-13.369347	-19.420639	-1.483578	6.302054	2.477236	-3.497685	7.044602	2.454304	0.247800	-1.498804	5.336136	-19.816710	0.266932	3.659297	5.273882	19.677792	3.619540	10.166423	-7.339082	3.775343	-8.436592	9.434126	4.612894	-2.899487	1.135230	-1.756873	2.775457	-6.848545	4.035028	-3.554939	-7.481577	-1.731580	14.843826	5.818925	-26.134092	0.338199	-1.457163	1.594792	-3.510014	-0.433232	0.275568	2.275525	-7.408982	16.999615	-20.075006	0.557978	13.589182	-0.629898	7.709525	-2.137257	-0.397105	8.130805	1.271741	
-1.273545	37.760658	-3.375056	2.094693	-13.348719	-19.389627	-1.473631	6.290504	2.474425	-3.498994	7.037737	2.425395	0.247800	-1.498804	5.336136	-19.814028	0.265862	3.625963	5.273292	19.668997	3.618396	10.166423	-7.339082	3.775343	-8.434473	9.408115	4.626581	-2.886424	1.160551	-1.809274	2.802073	-6.857132	4.022447	-3.600346	-7.475135	-1.916272	14.816016	5.883331	-26.195992	0.361838	-1.426313	1.572044	-3.538318	-0.439956	0.251788	2.282642	-7.411414	16.999491	-20.076643	0.547561	13.585570	-0.617644	7.719045	-2.183417	-0.333641	8.121153	1.203424	
-1.274111	37.760857	-3.371207	2.087643	-13.329160	-19.334293	-1.441538	6.300865	2.495558	-3.502746	7.018172	2.343193	0.247800	-1.498804	5.336136	-19.799433	0.297140	3.572800	5.271456	19.641506	3.614782	10.166423	-7.339082	3.775343	-8.430408	9.370830	4.696398	-2.864315	1.203146	-1.942174	2.860513	-6.852809	4.028390	-3.659906	-7.481686	-1.975064	14.804384	5.910109	-26.260296	0.394343	-1.385359	1.454535	-3.589571	-0.438658	0.242680	2.317594	-7.419634	16.999245	-20.077538	0.541879	13.583568	-0.589633	7.751554	-2.332039	-0.191059	8.083420	1.131890	
-1.274872	37.761589	-3.369046	2.089303	-13.329379	-19.331369	-1.439718	6.306678	2.511977	-3.503705	7.013429	2.323389	0.247800	-1.498804	5.336136	-19.801741	0.306477	3.576945	5.273702	19.632118	3.608618	10.166423	-7.339082	3.775343	-8.438530	9.361086	4.732010	-2.855906	1.214180	-1.978753	2.860513	-6.852809	4.028390	-3.659906	-7.481686	-1.975064	14.804095	5.910514	-26.265360	0.419384	-1.362722	1.420467	-3.630260	-0.443917	0.239399	2.339591	-7.427523	16.999203	-20.077538	0.541879	13.583568	-0.582386	7.762877	-2.381255	-0.127433	8.061229	1.124718	
-1.276939	37.763588	-3.361405	2.089303	-13.329379	-19.331369	-1.439185	6.307599	2.514455	-3.503955	7.012689	2.320783	0.247800	-1.498804	5.336136	-19.805529	0.333461	3.603813	5.284432	19.602600	3.582890	10.166423	-7.339082	3.775343	-8.438530	9.361086	4.732010	-2.839473	1.243178	-1.990276	2.863646	-6.878024	4.041158	-3.661078	-7.482688	-1.772739	14.813083	5.846088	-26.356472	0.436960	-1.349013	1.424805	-3.645149	-0.443471	0.234798	2.336535	-7.440941	16.999626	-20.077538	0.541879	13.583568	-0.584965	7.763707	-2.386909	-0.058836	8.034263	1.117594	
-1.277566	37.764259	-3.358749	2.089303	-13.329379	-19.331369	-1.439185	6.307599	2.514455	-3.503955	7.012689	2.320783	0.247800	-1.498804	5.336136	-19.807261	0.342533	3.614738	5.289155	19.592470	3.572250	10.166423	-7.339082	3.775343	-8.438530	9.361086	4.732010	-2.833236	1.252449	-1.993149	2.876310	-6.883356	4.044436	-3.671330	-7.483651	-1.674136	14.836491	5.844878	-26.357788	0.447623	-1.336909	1.436795	-3.653951	-0.448143	0.222407	2.334281	-7.447324	16.999823	-20.077538	0.541879	13.583568	-0.584965	7.763707	-2.386909	-0.025150	8.020786	1.112631	
-1.277719	37.767021	-3.351144	2.105435	-13.327581	-19.284245	-1.454134	6.290828	2.435738	-3.502424	7.021235	2.357139	0.247800	-1.498804	5.336136	-19.836847	0.382205	3.649121	5.329126	19.553082	3.493579	10.166423	-7.339082	3.775343	-8.456764	9.343291	4.759022	-2.799003	1.294658	-2.064706	2.857334	-6.906338	4.047880	-3.652259	-7.480945	-1.433683	14.903600	5.846906	-26.278746	0.468654	-1.309182	1.379408	-3.658786	-0.442823	0.209645	2.328475	-7.463389	17.005505	-20.077402	0.543565	13.578664	-0.562971	7.780785	-2.457103	0.043460	7.918112	1.091244	
-1.277575	37.767292	-3.352089	2.111970	-13.328535	-19.272430	-1.463701	6.300008	2.398450	-3.501776	7.009291	2.384029	0.247800	-1.498804	5.336136	-19.843874	0.383961	3.642131	5.331060	19.553354	3.490236	10.166423	-7.339082	3.775343	-8.469898	9.334932	4.758667	-2.782240	1.307850	-2.071074	2.850841	-6.910421	4.055844	-3.648759	-7.480259	-1.370347	14.928753	5.854242	-26.270628	0.487483	-1.289666	1.382767	-3.668850	-0.452749	0.196982	2.328116	-7.463994	17.011808	-20.077255	0.545640	13.572701	-0.552682	7.788834	-2.465881	0.050998	7.886813	1.098898	
-1.277577	37.767334	-3.352217	2.112884	-13.328663	-19.270807	-1.472428	6.299846	2.349663	-3.499746	7.006042	2.432525	0.247800	-1.498804	5.336136	-19.844748	0.384278	3.640745	5.331060	19.553354	3.490236	10.166423	-7.339082	3.775343	-8.473566	9.317291	4.764557	-2.756029	1.339488	-2.071254	2.832187	-6.922314	4.078297	-3.609651	-7.381351	-1.388333	14.958622	5.879779	-26.189808	0.501424	-1.261024	1.387650	-3.678877	-0.463073	0.184630	2.327729	-7.463750	17.033188	-20.069626	0.553124	13.576860	-0.546739	7.796540	-2.474309	0.022080	7.824140	1.087931	
-1.278280	37.768219	-3.348567	2.112884	-13.328663	-19.270807	-1.473081	6.313778	2.345439	-3.500089	6.991859	2.435989	0.247800	-1.498804	5.336136	-19.847818	0.396245	3.658399	5.339195	19.539629	3.472803	10.166423	-7.339082	3.775343	-8.465167	9.308479	4.762324	-2.756891	1.353238	-2.068117	2.828870	-6.923573	4.107074	-3.594490	-7.331189	-1.420702	14.956350	5.868442	-26.171476	0.503174	-1.240697	1.399810	-3.688494	-0.472957	0.172802	2.327593	-7.463668	17.040823	-20.066217	0.555869	13.580645	-0.554085	7.800462	-2.474283	0.037662	7.743406	1.019704	
-1.281342	37.771404	-3.335994	2.112884	-13.328663	-19.270807	-1.476363	6.353703	2.324310	-3.500781	6.950596	2.455136	0.247800	-1.498804	5.336136	-19.855553	0.439499	3.708628	5.360399	19.491482	3.424126	10.166423	-7.339082	3.775343	-8.440896	9.283008	4.755876	-2.759200	1.393142	-2.058965	2.789568	-6.939186	4.129354	-3.519933	-7.197508	-1.453204	14.908852	5.792575	-26.266981	0.490102	-1.203171	1.412709	-3.697466	-0.482180	0.161762	2.327260	-7.463401	17.062561	-20.033648	0.568260	13.670278	-0.575185	7.809947	-2.474527	0.035574	7.719331	1.025123	
-1.282573	37.772530	-3.331743	2.112884	-13.328663	-19.270807	-1.478694	6.363285	2.309870	-3.500568	6.940049	2.469321	0.247800	-1.498804	5.336136	-19.857292	0.454772	3.722216	5.365421	19.474922	3.411308	10.166423	-7.339082	3.775343	-8.416324	9.257229	4.749352	-2.774524	1.425113	-2.053215	2.768637	-6.946936	4.129160	-3.489322	-7.158037	-1.456705	14.889374	5.760919	-26.297842	0.472109	-1.170770	1.419933	-3.701610	-0.486444	0.156670	2.327158	-7.463308	17.069498	-20.025188	0.571204	13.691533	-0.597223	7.831385	-2.472734	0.059362	7.644041	0.947113	
